<svg id="Capa_1" xmlns="http://www.w3.org/2000/svg" viewBox="0 0 299.9 464.4"><style>.st0{fill:#4d5cb9}</style><path class="st0" d="M198.8 208.6c24.7-9.7 45.8-26.4 61-48.3 15.5-22.4 23.8-48.7 23.8-76.1V71.7h8.9c4.1 0 7.5-3.4 7.5-7.5V7.5c0-4.1-3.4-7.5-7.5-7.5H7.5C3.4 0 0 3.4 0 7.5v56.7c0 4.1 3.4 7.5 7.5 7.5h9v12.6c0 27.4 8.2 53.7 23.8 76.1 15.2 21.9 36.3 38.6 61 48.3 9.8 3.8 16.1 12.9 16.1 23.2v.9c0 10.3-6.3 19.4-16.1 23.2-24.7 9.7-45.8 26.4-61 48.3-15.5 22.4-23.8 48.7-23.8 76.1V393h-9c-4.1 0-7.5 3.4-7.5 7.5v56.7c0 4.1 3.4 7.5 7.5 7.5h284.9c4.1 0 7.5-3.4 7.5-7.5v-56.7c0-4.1-3.4-7.5-7.5-7.5h-8.9v-12.6c0-27.4-8.2-53.7-23.8-76.1-15.2-21.9-36.3-38.6-61-48.3-9.8-3.8-16.1-12.9-16.1-23.2v-.9c.1-10.4 6.4-19.5 16.2-23.3zM15 43.4h204.8c4.1 0 7.5-3.4 7.5-7.5s-3.4-7.5-7.5-7.5H15V15h269.9v13.4h-14.4c-4.1 0-7.5 3.4-7.5 7.5s3.4 7.5 7.5 7.5h14.4v13.4H15V43.4zm269.9 406H15v-41.7h269.9v41.7zm-91.6-179.6c21.9 8.6 40.6 23.4 54.1 42.9 13.8 19.9 21.1 43.2 21.1 67.5v12.6h-237v-12.6c0-24.3 7.3-47.6 21.1-67.5 13.5-19.4 32.2-34.2 54.1-42.9 15.6-6.1 25.6-20.7 25.6-37.2v-.9c0-16.5-10.1-31.1-25.6-37.2-22-8.5-40.7-23.3-54.2-42.7-13.8-19.9-21.1-43.2-21.1-67.5V71.7h237v12.6c0 24.3-7.3 47.6-21.1 67.5-13.5 19.4-32.2 34.2-54.1 42.9-15.6 6.1-25.6 20.7-25.6 37.2v.9c.1 16.3 10.1 30.9 25.7 37z"/><path class="st0" d="M156.7 299.5c-1.3-2.6-3.9-4.2-6.8-4.2s-5.5 1.6-6.8 4.2c-6.2 12.8-17 22.8-30.5 28.1-18.9 7.4-35 20.2-46.6 36.9a7.55 7.55 0 0 0-.5 7.8c1.3 2.5 3.9 4 6.6 4h155.4c2.8 0 5.4-1.5 6.6-4 1.3-2.5 1.1-5.5-.5-7.8-11.6-16.7-27.7-29.5-46.6-36.9-13.3-5.3-24.1-15.3-30.3-28.1zm55 61.7H88.2c8.5-8.6 18.6-15.3 30-19.7 12.8-5 23.8-13.5 31.8-24.3 8 10.8 18.9 19.3 31.8 24.3 11.3 4.5 21.4 11.2 29.9 19.7zm22.1-218.9c1.9-2.8 1.8-6.5-.5-9.2-1.5-1.7-3.7-2.6-5.9-2.6h-155c-2.2 0-4.4.9-5.9 2.6-2.3 2.7-2.4 6.4-.5 9.2 11.6 16.7 27.7 29.5 46.6 36.9 10.5 4.1 19.5 11.1 25.8 20.1 2.6 3.7 4 8.2 4 12.7v24.4c0 4.1 3.2 7.7 7.3 7.8 4.2.1 7.7-3.3 7.7-7.5V212c0-4.5 1.3-9 4-12.7 6.3-9 15.3-16 25.8-20.1 18.9-7.4 35-20.1 46.6-36.9zM150 189.6c-8-10.8-18.9-19.3-31.8-24.3-11.3-4.5-21.5-11.2-30-19.7h123.5c-8.5 8.6-18.6 15.3-30 19.7-12.8 5-23.8 13.5-31.7 24.3zm-6.3 73.6c1.8 2.7 5.3 4 8.4 3 3.1-1 5.3-3.9 5.3-7.2 0-6.3-7.6-9.7-12.3-5.7-2.9 2.5-3.4 6.8-1.4 9.9.3.4-.2-.4 0 0zM252.4 33c-2-4.8-8.5-6.2-12.2-2.4-2.9 2.8-2.9 7.8 0 10.6 2.4 2.5 6.4 2.9 9.3 1.1 3.1-2 4.3-5.9 2.9-9.3-.2-.5.2.4 0 0z"/></svg>