<svg id="Capa_1" xmlns="http://www.w3.org/2000/svg" viewBox="0 0 400 512"><style>.st0{fill:#4d5cb9}</style><path class="st0" d="M360 32h-80c-7.3-9.7-18.9-16-32-16h-20.4a31.806 31.806 0 0 0-55.2 0H152c-13.1 0-24.7 6.3-32 16H40C17.9 32 0 49.9 0 72v400c0 22.1 17.9 40 40 40h320c22.1 0 40-17.9 40-40V72c0-22.1-17.9-40-40-40zM128 56c0-13.2 10.8-24 24-24h25.5c3.4 0 6.4-2.1 7.5-5.3 2.3-6.4 8.3-10.7 15-10.7 6.7 0 12.7 4.3 15 10.7 1.1 3.2 4.2 5.3 7.5 5.3H248c13.2 0 24 10.8 24 24v24H128V56zm256 416c0 13.2-10.8 24-24 24H40c-13.2 0-24-10.8-24-24V72c0-13.2 10.8-24 24-24h72.8c-.5 2.6-.8 5.3-.8 8v32c0 4.4 3.6 8 8 8h160c4.4 0 8-3.6 8-8V56c0-2.7-.3-5.4-.8-8H360c13.2 0 24 10.8 24 24v400z"/><path class="st0" d="M360 64h-48c-4.4 0-8 3.6-8 8s3.6 8 8 8h40v384H48V80h40c4.4 0 8-3.6 8-8s-3.6-8-8-8H40c-4.4 0-8 3.6-8 8v400c0 4.4 3.6 8 8 8h320c4.4 0 8-3.6 8-8V72c0-4.4-3.6-8-8-8zM200 32c-2.1 0-4.2.8-5.7 2.3S192 37.9 192 40s.9 4.2 2.3 5.7c1.5 1.5 3.6 2.3 5.7 2.3s4.2-.8 5.7-2.3 2.3-3.5 2.3-5.7-.9-4.2-2.3-5.7c-1.5-1.5-3.6-2.3-5.7-2.3z"/><path class="st0" d="M74.3 186.3c-3.1 3.1-3.1 8.2 0 11.3l24 24c1.6 1.6 3.6 2.3 5.7 2.3s4.1-.8 5.7-2.3l40-40c3.1-3.1 3.1-8.2 0-11.3-3.1-3.1-8.2-3.1-11.3 0L104 204.7l-18.3-18.3c-3.2-3.2-8.2-3.2-11.4-.1zm75.4 72c-3.1-3.1-8.2-3.1-11.3 0L104 292.7l-18.3-18.3c-3.1-3.1-8.2-3.1-11.3 0-3.1 3.1-3.1 8.2 0 11.3l24 24c1.6 1.6 3.6 2.3 5.7 2.3s4.1-.8 5.7-2.3l40-40c3-3.2 3-8.2-.1-11.4zm-11.4 88L104 380.7l-18.3-18.3c-3.1-3.1-8.2-3.1-11.3 0-3.1 3.1-3.1 8.2 0 11.3l24 24c1.6 1.6 3.6 2.3 5.7 2.3s4.1-.8 5.7-2.3l40-40c3.1-3.1 3.1-8.2 0-11.3-3.3-3.2-8.3-3.2-11.5-.1zM184 200h136c4.4 0 8-3.6 8-8s-3.6-8-8-8H184c-4.4 0-8 3.6-8 8s3.6 8 8 8zm0 88h136c4.4 0 8-3.6 8-8s-3.6-8-8-8H184c-4.4 0-8 3.6-8 8s3.6 8 8 8zm0 88h136c4.4 0 8-3.6 8-8s-3.6-8-8-8H184c-4.4 0-8 3.6-8 8s3.6 8 8 8z"/></svg>