<svg id="Layer_1" xmlns="http://www.w3.org/2000/svg" viewBox="0 0 512 512"><style>.st0{fill:#4d5cb9}</style><path class="st0" d="M511.5 20.1C509.1 8.5 498.7 0 486.9 0h-77c-4.4 0-8 3.6-8 8s3.6 8 8 8h77c5 0 9.1 4.1 9.1 9.1v60.4H16V25.1c0-5 4.1-9.1 9.1-9.1h342c4.4 0 8-3.6 8-8s-3.6-8-8-8h-342C11.4 0 0 11.4 0 25.1V350c0 4.4 3.6 8 8 8s8-3.6 8-8V101.5h480v385.3c0 5-4.1 9.1-9.1 9.1H25.1c-5 0-9.1-4.1-9.1-9.1v-94.1c0-4.4-3.6-8-8-8s-8 3.6-8 8v94.1C0 500.7 11.3 512 25.1 512h461.8c13.9 0 25.1-11.3 25.1-25.1V25.1c0-1.7-.2-3.4-.5-5z"/><path class="st0" d="M67.9 25.7C54 25.7 42.8 37 42.8 50.8S54 75.9 67.9 75.9 93 64.6 93 50.8c0-13.9-11.3-25.1-25.1-25.1zm0 34.2c-5 0-9.1-4.1-9.1-9.1s4.1-9.1 9.1-9.1 9.1 4.1 9.1 9.1-4.1 9.1-9.1 9.1zm68.4-34.2c-13.9 0-25.1 11.3-25.1 25.1s11.3 25.1 25.1 25.1 25.1-11.3 25.1-25.1c0-13.9-11.3-25.1-25.1-25.1zm0 34.2c-5 0-9.1-4.1-9.1-9.1s4.1-9.1 9.1-9.1 9.1 4.1 9.1 9.1-4.1 9.1-9.1 9.1zm68.4-34.2c-13.9 0-25.1 11.3-25.1 25.1s11.3 25.1 25.1 25.1 25.1-11.3 25.1-25.1c0-13.9-11.3-25.1-25.1-25.1zm0 34.2c-5 0-9.1-4.1-9.1-9.1s4.1-9.1 9.1-9.1 9.1 4.1 9.1 9.1-4.1 9.1-9.1 9.1zm179.6 290.7h-248c-4.4 0-8 3.6-8 8v34.2c0 4.4 3.6 8 8 8h248c4.4 0 8-3.6 8-8v-34.2c0-4.4-3.6-8-8-8zm-8 34.2h-232v-18.2h231.9v18.2zm8 34.2h-248c-4.4 0-8 3.6-8 8v34.2c0 4.4 3.6 8 8 8h248c4.4 0 8-3.6 8-8V427c0-4.4-3.6-8-8-8zm-8 34.2h-232V435h231.9v18.2zm84.9-410.4h-17.1c-4.4 0-8 3.6-8 8s3.6 8 8 8h17.1c4.4 0 8-3.6 8-8 0-4.5-3.5-8-8-8zm-42.7 0H290.2c-4.4 0-8 3.6-8 8s3.6 8 8 8h128.3c4.4 0 8-3.6 8-8 0-4.5-3.6-8-8-8zM307.3 196.7h-.5v-26.2c0-23.3-18.9-42.2-42.2-42.2h-17.1c-23.3 0-42.2 18.9-42.2 42.2v8.6c0 4.4 3.6 8 8 8s8-3.6 8-8v-8.6c0-14.4 11.7-26.2 26.2-26.2h17.1c14.4 0 26.2 11.7 26.2 26.2v26.2h-86c-13.9 0-25.1 11.3-25.1 25.1v102.6c0 4.4 3.6 8 8 8h136.8c4.4 0 8-3.6 8-8V221.8c-.1-13.9-11.3-25.1-25.2-25.1zm9.1 119.7H195.6v-94.6c0-5 4.1-9.1 9.1-9.1h102.6c5 0 9.1 4.1 9.1 9.1v94.6z"/><path class="st0" d="M256 230.9c-13.9 0-25.1 11.3-25.1 25.1 0 11 7.2 20.4 17.1 23.8v19c0 4.4 3.6 8 8 8s8-3.6 8-8v-19c9.9-3.4 17.1-12.8 17.1-23.8 0-13.9-11.2-25.1-25.1-25.1zm0 34.2c-5 0-9.1-4.1-9.1-9.1s4.1-9.1 9.1-9.1 9.1 4.1 9.1 9.1-4.1 9.1-9.1 9.1z"/></svg>