<svg xmlns="http://www.w3.org/2000/svg" width="151" height="15"><path fill="#fff" d="M12.1 4.84a4.6 4.6 0 0 1-1.42 3.42 4.6 4.6 0 0 1-3.42 1.42H2.42v4.84H0V7.26h7.26c.66 0 1.21-.24 1.69-.7.49-.48.73-1.03.73-1.69a2.2 2.2 0 0 0-.73-1.69 2.19 2.19 0 0 0-1.69-.76H2.42L0 0h7.26c1.33 0 2.48.48 3.42 1.42a4.77 4.77 0 0 1 1.42 3.42zm3.83 7.26l-1.24 2.42H12L19.26 0l4.84 9.68h-2.72l-2.12-4.27-2.15 4.27zm9.38 0h-2.7l1.21 2.42h2.7zm12.61-1.64l2.42.79a7.28 7.28 0 0 1-2.57 2.36c-.52.3-1.06.51-1.67.66a6.92 6.92 0 0 1-6.92-1.9A6.96 6.96 0 0 1 27 7.26c0-2 .7-3.69 2.15-5.11A6.92 6.92 0 0 1 34.26 0c1 0 1.93.18 2.84.57.88.4 1.66.91 2.33 1.58l-1.75 1.69a4.63 4.63 0 0 0-3.42-1.42c-1.33 0-2.48.45-3.42 1.42a4.65 4.65 0 0 0-1.39 3.42 4.74 4.74 0 0 0 4.81 4.81 4.91 4.91 0 0 0 3.66-1.61zm-3.66-4.41l-.03 2.42h3.66l2.42-2.42zM57.1 0l-3.03 2.42H45V0zm-3.03 8.47H45V6.05h9.07zm0 3.63H45v2.42h12.1v-.22zM63 0h.82l1.33 2.06L66.48 0h.81v4.32h-.75V1.21l-1.36 2.03h-.03l-1.36-2.03v3.08h-.76zm12 0h3.21v.67h-2.45v1.11h2.17v.67h-2.17V3.6h2.48v.66H75zm10 0h1.6c1.36 0 2.3.94 2.3 2.18 0 1.21-.94 2.17-2.3 2.17H85zm1.6 3.63c.91 0 1.51-.61 1.51-1.48 0-.85-.6-1.48-1.51-1.48h-.84V3.6h.84zM96 0h.76v4.32H96zm9.97 0h.69l1.91 4.35h-.82l-.45-1.05h-2.06l-.45 1.05H104zm1.08 2.63L106.3.91l-.76 1.72zM64 13.72l.45-.54c.43.36.82.57 1.36.57.49 0 .76-.21.76-.54 0-.31-.18-.49-.97-.67-.9-.21-1.45-.48-1.45-1.3 0-.76.61-1.24 1.48-1.24.64 0 1.12.18 1.58.54l-.4.58c-.39-.3-.78-.45-1.18-.45-.45 0-.69.24-.69.51 0 .33.21.48 1.03.66.9.22 1.39.55 1.39 1.27 0 .82-.64 1.31-1.55 1.31-.69 0-1.3-.25-1.81-.7zm10-1.48c0-1.21.94-2.24 2.27-2.24s2.27 1 2.27 2.24c0 1.21-.94 2.24-2.27 2.24-1.36 0-2.27-1-2.27-2.24zm3.72 0c0-.85-.61-1.54-1.48-1.54-.85 0-1.45.69-1.45 1.54 0 .84.6 1.54 1.48 1.54.84 0 1.45-.7 1.45-1.54zM85 10h.76v3.63h2.26v.69H85zm10 2.48V10h.76v2.45c0 .82.42 1.24 1.08 1.24.67 0 1.09-.39 1.09-1.21V10h.76v2.45c0 1.3-.73 1.94-1.88 1.94-1.08 0-1.81-.64-1.81-1.91zm12.36-1.78H106V10h3.51v.7h-1.36v3.62h-.76V10.7zM116 10h.76v4.32H116zm8 2.24c0-1.21.94-2.24 2.27-2.24s2.27 1 2.27 2.24c0 1.21-.94 2.24-2.27 2.24-1.36 0-2.27-1-2.27-2.24zm3.72 0c0-.85-.61-1.54-1.48-1.54-.88 0-1.45.69-1.45 1.54 0 .84.6 1.54 1.48 1.54s1.45-.7 1.45-1.54zM136 10h.7l2.32 2.99V10h.76v4.32h-.63l-2.39-3.08v3.08H136zm11 3.72l.45-.54c.43.36.82.57 1.36.57.49 0 .76-.21.76-.54 0-.31-.18-.49-.97-.67-.9-.21-1.45-.48-1.45-1.3 0-.76.61-1.24 1.48-1.24.64 0 1.12.18 1.58.54l-.4.58c-.39-.3-.78-.45-1.18-.45-.45 0-.69.24-.69.51 0 .33.21.48 1.03.66.9.22 1.39.55 1.39 1.27 0 .82-.64 1.31-1.55 1.31-.66 0-1.3-.25-1.81-.7z"/></svg>