<svg width="40" height="52" id="Layer_1" xmlns="http://www.w3.org/2000/svg" viewBox="0 0 29 40"><style>.st0{fill:#d73f6e}</style><path class="st0" d="M14.5 0C6.5 0 0 6.5 0 14.5 0 24.4 13 39 13.5 39.6c.5.6 1.4.6 1.9 0C16 38.9 29 24.4 29 14.5 29 6.5 22.5 0 14.5 0zm0 21.8c-4 0-7.3-3.3-7.3-7.3s3.3-7.3 7.3-7.3 7.3 3.3 7.3 7.3-3.3 7.3-7.3 7.3z"/><circle cx="14.5" cy="14.4" r="13.2" fill="#fff"/><path class="st0" d="M14.5 27.6c-7.3 0-13.3-5.9-13.3-13.3s6-13.2 13.3-13.2S27.8 7 27.8 14.4s-6 13.2-13.3 13.2zm0-26.4C7.2 1.2 1.3 7.1 1.3 14.4s5.9 13.2 13.2 13.2 13.2-5.9 13.2-13.2S21.8 1.2 14.5 1.2z"/><path class="st0" d="M14.5 28.6C6.7 28.6.3 22.2.3 14.4.3 6.6 6.7.2 14.5.2s14.2 6.4 14.2 14.2-6.4 14.2-14.2 14.2zm0-26.4C7.8 2.2 2.3 7.6 2.3 14.4c0 6.7 5.5 12.2 12.2 12.2s12.2-5.5 12.2-12.2c0-6.8-5.5-12.2-12.2-12.2z"/><path class="st0" d="M14.5 28.6C6.6 28.6.2 22.2.2 14.3S6.6.1 14.5.1s14.3 6.4 14.3 14.3-6.4 14.2-14.3 14.2zm0-28.4C6.7.2.3 6.5.3 14.4s6.4 14.2 14.2 14.2 14.2-6.4 14.2-14.2S22.3.2 14.5.2zm0 26.4c-6.7 0-12.2-5.5-12.2-12.2 0-6.7 5.5-12.2 12.2-12.2s12.2 5.5 12.2 12.2-5.5 12.2-12.2 12.2zm0-24.4C7.8 2.2 2.3 7.7 2.3 14.4s5.5 12.2 12.2 12.2 12.2-5.5 12.2-12.2S21.2 2.2 14.5 2.2z"/><path class="st0" d="M5.8 5.5l3.8 10.1h1.9l3-8.2 3 8.2h1.9l3.8-10.1-1.8-1.6-2.9 8.4L15.4 4h-1.9l-3 8.3-3-8.4z"/><path class="st0" d="M19.5 15.8h-2.2L14.5 8l-2.9 7.9H9.4L5.6 5.4l2-1.9 3 8.2 2.8-7.9h2.2l2.9 7.9 2.9-8.2 2 1.9-3.9 10.4zm-1.9-.4h1.6l3.6-9.9-1.4-1.3-3.1 8.7-3.2-8.7h-1.6l-3.1 8.7-3-8.7L6 5.5l3.7 9.9h1.7l3.1-8.6 3.1 8.6zm-7.4 1.9h8.6l-3.4 9.1h-1.8z"/><path class="st0" d="M15.6 26.6h-2.1L10 17.1h9.2l-3.6 9.5zm-1.9-.4h1.6l3.3-8.8h-8.1l3.2 8.8z"/></svg>