<svg width="40" height="52" id="Layer_1" xmlns="http://www.w3.org/2000/svg" viewBox="0 0 512 512"><style>.st0{fill:#d73f6e}.st1{fill:#fff}</style><path class="st0" d="M256 0C153.8 0 70.6 83.2 70.6 185.4c0 126.9 165.9 313.2 173 321 6.6 7.4 18.2 7.4 24.8 0 7.1-7.9 173-194.1 173-321C441.4 83.2 358.2 0 256 0zm0 278.7c-51.4 0-93.3-41.9-93.3-93.3s41.9-93.3 93.3-93.3 93.3 41.9 93.3 93.3-41.9 93.3-93.3 93.3z"/><circle class="st1" cx="256" cy="183.9" r="169.1"/><path class="st0" d="M256 353.5c-93.5 0-169.6-76.1-169.6-169.6S162.5 14.3 256 14.3s169.6 76.1 169.6 169.6S349.5 353.5 256 353.5zm0-338.2C163 15.3 87.4 91 87.4 183.9S163 352.5 256 352.5s168.6-75.6 168.6-168.6S349 15.3 256 15.3z"/><path class="st0" d="M256 366c-100.4 0-182.1-81.7-182.1-182.1C73.9 83.5 155.6 1.8 256 1.8s182.1 81.7 182.1 182.1C438.1 284.3 356.4 366 256 366zm0-338.2c-86.1 0-156.1 70-156.1 156.1S169.9 340 256 340s156.1-70 156.1-156.1c0-86-70-156.1-156.1-156.1z"/><path class="st0" d="M256 366.5c-100.7 0-182.6-81.9-182.6-182.6S155.3 1.3 256 1.3c100.7 0 182.6 81.9 182.6 182.6S356.7 366.5 256 366.5zm0-364.2C155.9 2.3 74.4 83.8 74.4 183.9S155.9 365.5 256 365.5 437.6 284 437.6 183.9 356.1 2.3 256 2.3zm0 338.2c-86.3 0-156.6-70.2-156.6-156.6 0-86.3 70.2-156.6 156.6-156.6s156.6 70.2 156.6 156.6c0 86.4-70.3 156.6-156.6 156.6zm0-312.2c-85.8 0-155.6 69.8-155.6 155.6S170.2 339.5 256 339.5s155.6-69.8 155.6-155.6S341.8 28.3 256 28.3z"/><g><path class="st0" d="M145 70.1l48 130.1h24.8L256 94.5l38.6 105.7H319l48-130.1-22-20.3-38.2 108.1-38.6-106.5h-24.4l-38.2 106.1-39-107.7z"/><path class="st0" d="M320.7 202.7h-27.9L256 101.8l-36.5 100.9h-28.3L142.1 69.4l25.5-24.1 38 104.8L242 48.9h27.9l36.8 101.6 37.1-105.1 26 24-49.1 133.3zm-24.3-5h20.9L364 70.8l-17.9-16.6-39.3 111.1-40.4-111.4h-20.9l-40 110.9-40-110.6L148 70.8l46.8 126.9H216l40-110.5 40.4 110.5z"/></g><g><path class="st0" d="M200.7 221.3h111l-43.5 117.1h-24z"/><path class="st0" d="M269.9 340.9h-27.5l-45.3-122.1h118.2l-45.4 122.1zm-23.9-5h20.5l41.6-112.1H204.3L246 335.9z"/></g></svg>