<svg id="Capa_1" xmlns="http://www.w3.org/2000/svg" viewBox="0 0 462.7 286.4"><style>.st0{fill:#4d5cb9}</style><path class="st0" d="M459 64.3L232.7.2c-.9-.3-1.8-.3-2.7 0L3.6 64.3c-2.1.6-3.5 2.4-3.6 4.6s1.2 4.1 3.2 4.9l109.3 42.1-3.8 30.3c-.9 7.3 2.7 14.4 9.2 18.2 20.8 12.9 86.5 44.5 106.2 49.2 2.8.8 5.7 1.2 8.6 1.2 2.9 0 5.8-.4 8.6-1.2 19.7-4.7 85.4-36.3 106.2-49.2 6.5-3.8 10.2-10.9 9.2-18.2l-4-31.3 24.3-9.4v95.1c-7.9 2.2-13.7 9.4-13.7 18 0 6.1 2.9 11.5 7.4 14.9-1.1 5-2.4 10-3.7 15.1-.3.6-.5 1.2-.5 1.8-2.6 9.5-5.6 18.9-8.9 28.2-.5 1.4-.3 3 .5 4.3s2.2 2.2 3.7 2.3c6.7.7 13.5 1.1 20.2 1.1 6.8 0 13.5-.4 20.2-1.1 1.5-.2 2.9-1 3.7-2.3s1-2.9.5-4.3c-5.3-14.7-9.7-29.9-13.1-45.1 4.5-3.4 7.4-8.8 7.4-14.9 0-8.6-5.8-15.8-13.7-18v-98.9l72.4-27.9c2-.8 3.3-2.7 3.2-4.9 0-2.2-1.5-4-3.6-4.6zm-89.8 211.6c2.3-6.6 4.3-13.4 6.2-20.1h13.2c1.9 6.8 4 13.5 6.2 20.1-8.5.6-17.1.6-25.6 0zm16.7-30.1H378c.7-2.8 1.4-5.7 2.1-8.6.6.1 1.2.1 1.9.1s1.2 0 1.9-.1c.6 2.9 1.3 5.7 2 8.6zm4.8-27.2c0 4.8-3.9 8.7-8.7 8.7s-8.7-3.9-8.7-8.7 3.9-8.7 8.7-8.7 8.7 3.9 8.7 8.7zm-47.1-96.1l-43.1 16.6c-2.6 1-3.9 3.9-2.9 6.5.8 2 2.7 3.2 4.7 3.2.6 0 1.2-.1 1.8-.3l40.8-15.7.7 5.5-20.9 8c-2.6 1-3.9 3.9-2.9 6.5.8 2 2.7 3.2 4.7 3.2.6 0 1.2-.1 1.8-.3l18.5-7.1c0 3-1.6 5.8-4.4 7.4-.1 0-.1.1-.2.1-21.7 13.5-86.1 44-103.4 48.1-.1 0-.1 0-.2.1-3.9 1.1-8 1.1-11.9 0-.1 0-.1 0-.2-.1-17.3-4.1-81.7-34.6-103.4-48.1-.1 0-.1-.1-.2-.1-2.4-1.4-4-3.7-4.3-6.3l15.7 6.1c.6.2 1.2.3 1.8.3 2 0 3.9-1.2 4.7-3.2 1-2.6-.3-5.5-2.9-6.5l-18.3-7.1.7-5.5 38.3 14.8c.6.2 1.2.3 1.8.3 2 0 3.9-1.2 4.7-3.2 1-2.6-.3-5.5-2.9-6.5l-40.6-15.6.5-3.9L229.5 161c.6.2 1.2.3 1.8.3s1.2-.1 1.8-.3l110-42.4.5 3.9zm34.6-28.1L232.3 64.2c-2.7-.6-5.4 1.2-5.9 3.9-.6 2.7 1.2 5.4 3.9 5.9L361 101l-129.7 50L20.8 69.8l210.5-59.6 210.5 59.6-63.6 24.6z"/></svg>