<svg id="Capa_1" xmlns="http://www.w3.org/2000/svg" viewBox="0 0 338.1 414.3"><style>.st0{fill:#4d5cb9}</style><path class="st0" d="M333.1 49.5h-19.8V29.8c0-2.8-2.2-5-5-5h-19.8V5c0-2.8-2.2-5-5-5H5C2.2 0 0 2.2 0 5v354.8c0 2.8 2.2 5 5 5h19.8v19.8c0 2.8 2.2 5 5 5h19.8v19.8c0 2.8 2.2 5 5 5h278.6c2.8 0 5-2.2 5-5V54.5c-.1-2.7-2.3-5-5.1-5zM10 10h268.6v344.8H10V10zm24.8 354.8h248.8c2.8 0 5-2.2 5-5v-325h14.8v344.7H34.8v-14.7zm293.3 39.5H59.5v-14.8h248.8c2.8 0 5-2.2 5-5v-325h14.8v344.8z"/><path class="st0" d="M99.1 117.3h90.4c2.8 0 5-2.2 5-5s-2.2-5-5-5H99.1c-2.8 0-5 2.2-5 5s2.2 5 5 5zm0 24h90.4c2.8 0 5-2.2 5-5s-2.2-5-5-5H99.1c-2.8 0-5 2.2-5 5s2.2 5 5 5zm0 23.9h90.4c2.8 0 5-2.2 5-5s-2.2-5-5-5H99.1c-2.8 0-5 2.2-5 5s2.2 5 5 5zm0 23.9h90.4c2.8 0 5-2.2 5-5s-2.2-5-5-5H99.1c-2.8 0-5 2.2-5 5s2.2 5 5 5z"/><path class="st0" d="M58.8 229.4h171c2.8 0 5-2.2 5-5v-15.7c0-2.8-2.2-5-5-5s-5 2.2-5 5v10.7h-161V77h161v115.7c0 2.8 2.2 5 5 5s5-2.2 5-5V72c0-2.8-2.2-5-5-5h-171c-2.8 0-5 2.2-5 5v152.4c0 2.8 2.3 5 5 5z"/><path class="st0" d="M76.8 125.3c-2.8 0-5 2.2-5 5v76.2c0 2.8 2.2 5 5 5h135c2.8 0 5-2.2 5-5V90c0-2.8-2.2-5-5-5h-135c-2.8 0-5 2.2-5 5v22.7c0 2.8 2.2 5 5 5s5-2.2 5-5V95h125v106.4h-125v-71.2c0-2.7-2.2-4.9-5-4.9zm93.4 224.5c2.8 0 5-2.2 5-5s-2.2-5-5-5H19.6c-2.8 0-5 2.2-5 5s2.2 5 5 5h150.6zM119.7 25.3h150.6c2.8 0 5-2.2 5-5s-2.2-5-5-5H119.7c-2.8 0-5 2.2-5 5s2.2 5 5 5zm150.5 6h-34.9c-2.8 0-5 2.2-5 5s2.2 5 5 5h34.9c2.8 0 5-2.2 5-5s-2.2-5-5-5zm-55.5 1.5c-.9.9-1.5 2.2-1.5 3.5 0 1.3.5 2.6 1.5 3.5.9.9 2.2 1.5 3.5 1.5 1.3 0 2.6-.5 3.5-1.5.9-.9 1.5-2.2 1.5-3.5 0-1.3-.5-2.6-1.5-3.5-.9-.9-2.2-1.5-3.5-1.5-1.3 0-2.6.5-3.5 1.5zM19.6 336.2h35.2c2.8 0 5-2.2 5-5s-2.2-5-5-5H19.6c-2.8 0-5 2.2-5 5s2.2 5 5 5z"/></svg>