<svg id="Layer_1" xmlns="http://www.w3.org/2000/svg" viewBox="0 0 449.5 511.9"><style>.st0{fill:#4d5cb9}</style><path class="st0" d="M445 169.7c-9.7-35.5-34.8-60.9-72.9-73.9-4.6-26.4-16.5-47.8-35.7-63.8-25.5-21.2-63.2-32-112.3-32H112.6c-11.2-.5-33.3 6.2-39.2 34.9L.4 391.8c0 .2-.1.4-.1.6-.2 1.6-1.9 15.6 6.6 25.5 3.4 3.9 9.7 8.5 20.3 8.5h50.7c2.4 0 5.4-.3 8.6-1.2l-10.6 52.1c0 .2-.1.4-.1.6-.2 1.6-1.9 15.6 6.6 25.5 3.4 3.9 9.7 8.5 20.3 8.5h50.9c11.5 0 32-7.3 36.6-35.7l16.5-81.5c.3-1.2 3.8-15.3 17.3-15.3h3.2c16.6.2 60.5.6 105.7-14.6 26-8.7 48-21.3 65.6-37.4 21.5-19.7 36.5-44.7 44.5-74.3 4.7-16.8 11-50.2 2-83.4zm-97.1-7.3c-19.7 72.9-85.9 111.3-191.6 111.3H148.5c-3.8 0-7.3.5-10.4 1.4l30.8-150.6c3.6-17.5 15.5-18.6 18.4-18.6h112.3c20.1 0 38.2 1.9 53.8 5.8 1.4 21.2-2.7 40.5-5.5 50.7zM77.7 406.1H27.3c-3.6 0-4.6-1.1-4.9-1.5-1.7-2-2.1-6.5-1.9-9L93.4 39c3.6-17.5 15.5-18.6 18.4-18.6h112.3c71.3 0 113.6 23.4 125.8 69.6-15.2-3-32-4.5-50.4-4.5H188.1c-11.2-.5-33.3 6.2-39.2 34.9L93 393.9c-4.2 11.7-13.2 12.3-15.3 12.2zm345.7-158.2c-19.7 72.9-85.9 111.3-191.6 111.3H224c-24 0-34.9 20.5-37.3 31.3v.2l-16.5 81.8c0 .1-.1.3-.1.4-2.8 17.9-14.2 18.7-16.8 18.7h-50.5c-3.6 0-4.6-1.1-4.9-1.5-1.7-2-2.1-6.5-1.9-9l35.2-171.6c.5-1.9 4.2-15.3 17.3-15.3h3.2c16.6.2 60.5.6 105.7-14.6 26-8.7 48-21.3 65.6-37.4 21.5-19.7 36.5-44.7 44.5-74.3 2.8-10.2 6.7-28.5 6.5-49.3 68.1 28.4 57.6 98.9 49.4 129.3z"/><path class="st0" d="M80.6 210.3c-5.5-1.1-10.9 2.4-12 8l-1 4.8c-1.1 5.5 2.4 10.9 8 12 .7.1 1.4.2 2.1.2 4.7 0 9-3.3 10-8.2l1-4.8c1-5.5-2.6-10.9-8.1-12zM72.9 248.3c-5.5-1.1-10.9 2.4-12 8L35 382.6c-1.1 5.5 2.4 10.9 8 12 .7.1 1.4.2 2.1.2 4.7 0 9-3.3 10-8.2l25.7-126.3c1.1-5.5-2.4-10.9-7.9-12z"/></svg>