<svg id="Layer_1" xmlns="http://www.w3.org/2000/svg" viewBox="0 0 245 474.8"><style>.st0{fill:#4d5cb9}</style><path class="st0" d="M155.2 878.8c0-.2-.1-.3-.1-.5-4-15.1-17.2-25.7-32.1-25.7h-1.3c-8.4.5-15.3-5-17-13.4-1.6-8.1 2.7-16.3 10.3-19.5s16.8-.4 20.9 6.3c2.2 3.5 6.8 4.6 10.3 2.4 3.5-2.2 4.6-6.8 2.4-10.3-4.3-7-11.1-11.7-18.7-13.8V784c0-4.1-3.4-7.5-7.5-7.5s-7.5 3.4-7.5 7.5v19.9c-2 .4-4 1-5.9 1.9-14.1 6-22.2 21.3-19.2 36.3 3.1 15.6 16.7 26.3 32.4 25.4h.6c8 0 15.2 5.9 17.5 14.4 1.5 8.1-3 16-11 19.2-.1 0-.1 0-.2.1-7.5 3.2-15.9.5-20.2-6.3-2.2-3.5-6.8-4.6-10.3-2.5-3.5 2.2-4.6 6.8-2.5 10.3 4.4 7.1 11.1 11.9 18.7 13.9v20.2c0 4.1 3.4 7.5 7.5 7.5s7.5-3.4 7.5-7.5v-20.1c1.7-.4 3.4-1 5.1-1.7 15.1-5.9 23.4-20.8 20.3-36.2z" transform="translate(0 -540.36)"/><path class="st0" d="M242.3 683.8l-43.6-35.2c2.4-6.5 4-13.3 4.6-20.4v-.2c2.7-40.2-25-76.9-64.4-85.4-19.5-4.5-40.1-2.1-57.8 6.7-17.9 8.9-31.7 23.9-39 42.1-1.5 3.8.3 8.2 4.2 9.7 3.8 1.5 8.2-.3 9.7-4.2 12.1-30.3 46.3-47.4 79.5-39.7h.1c32.1 6.9 54.7 36.9 52.6 69.7-.4 4-1.1 7.8-2.1 11.6l-59.3-47.9c-2.8-2.2-6.7-2.2-9.4 0L2.8 683.7C1 685.1 0 687.3 0 689.5v318.2c0 4.1 3.4 7.5 7.5 7.5h230c4.1 0 7.5-3.4 7.5-7.5V689.5c.1-2.1-.9-4.2-2.7-5.7zm-12.1 316.6H15.1V693.2l107.1-87.1 58 46.8c-5.3 9.5-12.9 17.5-22.1 23.5-1.9-3.2-4.2-6.2-7-8.8-8.1-8-18.7-12.2-29.8-12.1-10.8.2-20.9 4.5-28.2 12.3-7.6 8-11.8 18.9-11.4 29.8.3 10.6 4.7 20.5 12.4 27.7 7.4 7.7 17.3 12 28.1 12.2h.6c11 0 21.3-4.3 29.3-12.2l.2-.2c7.6-8 11.8-18.9 11.4-29.8 0-1.5-.2-3-.4-4.5 11.8-7 21.8-16.8 28.8-28.5l38.1 30.7v307.4zM125.3 702.6h.5c7.9-.5 15.6-2.1 22.8-4.7-.3 6.3-2.9 12.4-7.2 17-5.2 5.1-11.9 7.8-19 7.7-6.8-.1-13-2.8-17.6-7.7l-.3-.3c-4.8-4.5-7.6-10.6-7.8-17.3-.2-7 2.5-13.9 7.3-19 4.6-4.8 10.8-7.5 17.6-7.7h.4c7 0 13.6 2.8 18.7 7.8l.2.2c1.5 1.4 2.8 3 3.9 4.7-6.3 2.4-12.9 3.8-19.9 4.3-4.2.3-7.3 3.8-7.1 8 .2 4 3.5 7 7.5 7z" transform="translate(0 -540.36)"/></svg>