<?xml version="1.0" encoding="utf-8"?>
<!-- Generator: Adobe Illustrator 21.0.2, SVG Export Plug-In . SVG Version: 6.00 Build 0)  -->
<svg version="1.1" id="Capa_1" xmlns="http://www.w3.org/2000/svg" xmlns:xlink="http://www.w3.org/1999/xlink" x="0px" y="0px"
	 viewBox="0 0 512 456.4" style="enable-background:new 0 0 512 456.4;" xml:space="preserve">
<style type="text/css">
	.st0{fill:#4D5CB9;}
</style>
<path class="st0" d="M470.5,41.5C443.8,14.7,408.2,0,370.3,0c-37.8,0-73.4,14.7-100.2,41.5l-239,239c-0.4,0.3-0.8,0.7-1.1,1.1
	C10.7,300.9,0,326.6,0,354s10.7,53.1,30,72.4c19.3,19.3,45.1,30,72.4,30c27.4,0,53.1-10.7,72.4-30l166.6-166.6
	c11.9-11.9,18.5-27.8,18.5-44.6c0-16.9-6.6-32.7-18.5-44.6c-11.9-11.9-27.8-18.5-44.6-18.5c-16.9,0-32.7,6.6-44.6,18.5l-93,93
	c-4.5,4.5-7,10.6-7,17s2.5,12.4,7,17c4.5,4.5,10.6,7,17,7c6.4,0,12.4-2.5,17-7l93-93c5.6-5.6,15.8-5.6,21.4,0
	c5.9,5.9,5.9,15.5,0,21.3L140.9,392.5c-10.3,10.3-23.9,15.9-38.5,15.9c-14.5,0-28.2-5.7-38.5-15.9C53.7,382.2,48,368.5,48,354
	c0-14.1,5.3-27.4,15-37.5c0.3-0.3,0.7-0.6,1-0.9L304.1,75.4C321.8,57.8,345.3,48,370.3,48c25,0,48.5,9.7,66.2,27.4
	c17.7,17.7,27.4,41.2,27.4,66.2c0,23.6-8.7,46-24.6,63.3c-1.1,0.8-2.2,1.7-3.1,2.6L320.1,323.7c-9.4,9.4-9.4,24.6,0,33.9
	c4.5,4.5,10.6,7,17,7s12.4-2.5,17-7L467,244.7c1.3-0.9,2.5-1.8,3.5-2.9c26.8-26.7,41.5-62.3,41.5-100.2S497.3,68.2,470.5,41.5z
	 M459.2,230.5c-0.4,0.4-0.9,0.8-1.5,1.1c-0.5,0.3-1,0.7-1.5,1.2L342.8,346.3c-1.5,1.5-3.5,2.3-5.7,2.3c-2.1,0-4.1-0.8-5.7-2.3
	c-3.1-3.1-3.1-8.2,0-11.3l116.1-116.1c0.4-0.4,0.8-0.8,1.4-1.1c0.6-0.4,1.1-0.8,1.5-1.3c19-20.3,29.5-46.9,29.5-74.9
	c0-29.3-11.4-56.8-32.1-77.5C427.2,43.4,399.6,32,370.3,32c-29.3,0-56.8,11.4-77.5,32.1L52.7,304.3c-0.1,0.1-0.3,0.3-0.4,0.4
	c-0.2,0.2-0.4,0.3-0.5,0.5C39,318.3,32,335.7,32,354c0,18.8,7.3,36.5,20.6,49.8c13.3,13.3,31,20.6,49.8,20.6
	c18.8,0,36.5-7.3,49.8-20.6l166.6-166.6c12.1-12.1,12.1-31.9,0-44c-11.9-11.9-32.1-11.9-44,0l-93,93c-1.5,1.5-3.5,2.3-5.7,2.3
	s-4.1-0.8-5.7-2.3c-1.5-1.5-2.3-3.5-2.3-5.7c0-2.1,0.8-4.1,2.3-5.7l93-93c8.9-8.9,20.7-13.8,33.3-13.8c12.6,0,24.4,4.9,33.3,13.8
	c8.9,8.9,13.8,20.7,13.8,33.3c0,12.6-4.9,24.4-13.8,33.3L163.5,415.1c-16.3,16.3-38,25.3-61.1,25.3c-23.1,0-44.8-9-61.1-25.3
	C25,398.8,16,377.1,16,354s9-44.8,25.3-61.1c0.2-0.2,0.3-0.3,0.5-0.5c0.2-0.1,0.3-0.3,0.5-0.4L281.5,52.8
	C305.2,29.1,336.8,16,370.3,16c33.6,0,65.1,13.1,88.9,36.8c23.7,23.7,36.8,55.3,36.8,88.9S482.9,206.8,459.2,230.5z"/>
</svg>
