<?xml version="1.0" encoding="utf-8"?>
<!-- Generator: Adobe Illustrator 21.0.2, SVG Export Plug-In . SVG Version: 6.00 Build 0)  -->
<svg version="1.1" id="Capa_1" xmlns="http://www.w3.org/2000/svg" xmlns:xlink="http://www.w3.org/1999/xlink" x="0px" y="0px"
	 viewBox="0 0 299.9 464.4" style="enable-background:new 0 0 299.9 464.4;" xml:space="preserve">
<style type="text/css">
	.st0{fill:#4D5CB9;}
</style>
<g>
	<path class="st0" d="M198.8,208.6c24.7-9.7,45.8-26.4,61-48.3c15.5-22.4,23.8-48.7,23.8-76.1V71.7h8.9c4.1,0,7.5-3.4,7.5-7.5V7.5
		c0-4.1-3.4-7.5-7.5-7.5H7.5C3.4,0,0,3.4,0,7.5v56.7c0,4.1,3.4,7.5,7.5,7.5h9v12.6c0,27.4,8.2,53.7,23.8,76.1
		c15.2,21.9,36.3,38.6,61,48.3c9.8,3.8,16.1,12.9,16.1,23.2v0.9c0,10.3-6.3,19.4-16.1,23.2c-24.7,9.7-45.8,26.4-61,48.3
		c-15.5,22.4-23.8,48.7-23.8,76.1v12.6h-9c-4.1,0-7.5,3.4-7.5,7.5v56.7c0,4.1,3.4,7.5,7.5,7.5h284.9c4.1,0,7.5-3.4,7.5-7.5v-56.7
		c0-4.1-3.4-7.5-7.5-7.5h-8.9v-12.6c0-27.4-8.2-53.7-23.8-76.1c-15.2-21.9-36.3-38.6-61-48.3c-9.8-3.8-16.1-12.9-16.1-23.2v-0.9
		C182.7,221.5,189,212.4,198.8,208.6z M15,43.4h204.8c4.1,0,7.5-3.4,7.5-7.5s-3.4-7.5-7.5-7.5H15V15h269.9v13.4h-14.4
		c-4.1,0-7.5,3.4-7.5,7.5s3.4,7.5,7.5,7.5h14.4v13.4H15V43.4z M284.9,449.4H15v-41.7h269.9V449.4z M193.3,269.8
		c21.9,8.6,40.6,23.4,54.1,42.9c13.8,19.9,21.1,43.2,21.1,67.5v12.6h-237v-12.6c0-24.3,7.3-47.6,21.1-67.5
		c13.5-19.4,32.2-34.2,54.1-42.9c15.6-6.1,25.6-20.7,25.6-37.2v-0.9c0-16.5-10.1-31.1-25.6-37.2C84.7,186,66,171.2,52.5,151.8
		c-13.8-19.9-21.1-43.2-21.1-67.5V71.7h237v12.6c0,24.3-7.3,47.6-21.1,67.5c-13.5,19.4-32.2,34.2-54.1,42.9
		c-15.6,6.1-25.6,20.7-25.6,37.2v0.9C167.7,249.1,177.7,263.7,193.3,269.8z"/>
	<path class="st0" d="M156.7,299.5c-1.3-2.6-3.9-4.2-6.8-4.2s-5.5,1.6-6.8,4.2c-6.2,12.8-17,22.8-30.5,28.1
		c-18.9,7.4-35,20.2-46.6,36.9c-1.6,2.3-1.8,5.3-0.5,7.8c1.3,2.5,3.9,4,6.6,4h155.4c2.8,0,5.4-1.5,6.6-4c1.3-2.5,1.1-5.5-0.5-7.8
		c-11.6-16.7-27.7-29.5-46.6-36.9C173.7,322.3,162.9,312.3,156.7,299.5z M211.7,361.2H88.2c8.5-8.6,18.6-15.3,30-19.7
		C131,336.5,142,328,150,317.2c8,10.8,18.9,19.3,31.8,24.3C193.1,346,203.2,352.7,211.7,361.2z"/>
	<path class="st0" d="M233.8,142.3c1.9-2.8,1.8-6.5-0.5-9.2c-1.5-1.7-3.7-2.6-5.9-2.6h-155c-2.2,0-4.4,0.9-5.9,2.6
		c-2.3,2.7-2.4,6.4-0.5,9.2c11.6,16.7,27.7,29.5,46.6,36.9c10.5,4.1,19.5,11.1,25.8,20.1c2.6,3.7,4,8.2,4,12.7v24.4
		c0,4.1,3.2,7.7,7.3,7.8c4.2,0.1,7.7-3.3,7.7-7.5v-24.7c0-4.5,1.3-9,4-12.7c6.3-9,15.3-16,25.8-20.1
		C206.1,171.8,222.2,159.1,233.8,142.3z M150,189.6c-8-10.8-18.9-19.3-31.8-24.3c-11.3-4.5-21.5-11.2-30-19.7h123.5
		c-8.5,8.6-18.6,15.3-30,19.7C168.9,170.3,157.9,178.8,150,189.6z"/>
	<path class="st0" d="M143.7,263.2c1.8,2.7,5.3,4,8.4,3c3.1-1,5.3-3.9,5.3-7.2c0-6.3-7.6-9.7-12.3-5.7
		C142.2,255.8,141.7,260.1,143.7,263.2C144,263.6,143.5,262.8,143.7,263.2z"/>
	<path class="st0" d="M252.4,33c-2-4.8-8.5-6.2-12.2-2.4c-2.9,2.8-2.9,7.8,0,10.6c2.4,2.5,6.4,2.9,9.3,1.1
		C252.6,40.3,253.8,36.4,252.4,33C252.2,32.5,252.6,33.4,252.4,33z"/>
</g>
</svg>
