<?xml version="1.0" encoding="utf-8"?>
<!-- Generator: Adobe Illustrator 21.0.2, SVG Export Plug-In . SVG Version: 6.00 Build 0)  -->
<svg version="1.1" id="Capa_1" xmlns="http://www.w3.org/2000/svg" xmlns:xlink="http://www.w3.org/1999/xlink" x="0px" y="0px"
	 viewBox="0 0 400 512" style="enable-background:new 0 0 400 512;" xml:space="preserve">
<style type="text/css">
	.st0{fill:#4D5CB9;}
</style>
<g>
	<path class="st0" d="M360,32h-80c0,0,0,0,0,0c-7.3-9.7-18.9-16-32-16h-20.4C222,6.2,211.5,0,200,0s-22,6.2-27.6,16H152
		c-13.1,0-24.7,6.3-32,16c0,0,0,0,0,0H40C17.9,32,0,49.9,0,72v400c0,22.1,17.9,40,40,40h320c22.1,0,40-17.9,40-40V72
		C400,49.9,382.1,32,360,32z M128,56c0-13.2,10.8-24,24-24h25.5c3.4,0,6.4-2.1,7.5-5.3c2.3-6.4,8.3-10.7,15-10.7
		c6.7,0,12.7,4.3,15,10.7c1.1,3.2,4.2,5.3,7.5,5.3H248c13.2,0,24,10.8,24,24v24H128V56z M384,472c0,13.2-10.8,24-24,24H40
		c-13.2,0-24-10.8-24-24V72c0-13.2,10.8-24,24-24h72.8c-0.5,2.6-0.8,5.3-0.8,8v32c0,4.4,3.6,8,8,8h160c4.4,0,8-3.6,8-8V56
		c0-2.7-0.3-5.4-0.8-8H360c13.2,0,24,10.8,24,24V472z"/>
	<path class="st0" d="M360,64h-48c-4.4,0-8,3.6-8,8s3.6,8,8,8h40v384H48V80h40c4.4,0,8-3.6,8-8s-3.6-8-8-8H40c-4.4,0-8,3.6-8,8v400
		c0,4.4,3.6,8,8,8h320c4.4,0,8-3.6,8-8V72C368,67.6,364.4,64,360,64z"/>
	<path class="st0" d="M200,32c-2.1,0-4.2,0.8-5.7,2.3S192,37.9,192,40c0,2.1,0.9,4.2,2.3,5.7c1.5,1.5,3.6,2.3,5.7,2.3
		c2.1,0,4.2-0.8,5.7-2.3s2.3-3.5,2.3-5.7s-0.9-4.2-2.3-5.7C204.2,32.8,202.1,32,200,32z"/>
	<path class="st0" d="M74.3,186.3c-3.1,3.1-3.1,8.2,0,11.3l24,24c1.6,1.6,3.6,2.3,5.7,2.3s4.1-0.8,5.7-2.3l40-40
		c3.1-3.1,3.1-8.2,0-11.3c-3.1-3.1-8.2-3.1-11.3,0L104,204.7l-18.3-18.3C82.5,183.2,77.5,183.2,74.3,186.3z"/>
	<path class="st0" d="M149.7,258.3c-3.1-3.1-8.2-3.1-11.3,0L104,292.7l-18.3-18.3c-3.1-3.1-8.2-3.1-11.3,0c-3.1,3.1-3.1,8.2,0,11.3
		l24,24c1.6,1.6,3.6,2.3,5.7,2.3s4.1-0.8,5.7-2.3l40-40C152.8,266.5,152.8,261.5,149.7,258.3z"/>
	<path class="st0" d="M138.3,346.3L104,380.7l-18.3-18.3c-3.1-3.1-8.2-3.1-11.3,0c-3.1,3.1-3.1,8.2,0,11.3l24,24
		c1.6,1.6,3.6,2.3,5.7,2.3s4.1-0.8,5.7-2.3l40-40c3.1-3.1,3.1-8.2,0-11.3C146.5,343.2,141.5,343.2,138.3,346.3z"/>
	<path class="st0" d="M184,200h136c4.4,0,8-3.6,8-8s-3.6-8-8-8H184c-4.4,0-8,3.6-8,8S179.6,200,184,200z"/>
	<path class="st0" d="M184,288h136c4.4,0,8-3.6,8-8s-3.6-8-8-8H184c-4.4,0-8,3.6-8,8S179.6,288,184,288z"/>
	<path class="st0" d="M184,376h136c4.4,0,8-3.6,8-8s-3.6-8-8-8H184c-4.4,0-8,3.6-8,8S179.6,376,184,376z"/>
</g>
</svg>
