<?xml version="1.0" encoding="utf-8"?>
<!-- Generator: Adobe Illustrator 21.0.2, SVG Export Plug-In . SVG Version: 6.00 Build 0)  -->
<svg version="1.1" id="Layer_1" xmlns="http://www.w3.org/2000/svg" xmlns:xlink="http://www.w3.org/1999/xlink" x="0px" y="0px"
	 viewBox="0 0 512 512" style="enable-background:new 0 0 512 512;" xml:space="preserve">
<style type="text/css">
	.st0{fill:#4D5CB9;}
</style>
<g>
	<g>
		<path class="st0" d="M511.5,20.1C509.1,8.5,498.7,0,486.9,0h-77c-4.4,0-8,3.6-8,8c0,4.4,3.6,8,8,8h77c5,0,9.1,4.1,9.1,9.1v60.4H16
			V25.1c0-5,4.1-9.1,9.1-9.1h342c4.4,0,8-3.6,8-8c0-4.4-3.6-8-8-8h-342C11.4,0,0,11.4,0,25.1v324.9c0,4.4,3.6,8,8,8c4.4,0,8-3.6,8-8
			V101.5H496v385.3c0,5-4.1,9.1-9.1,9.1H25.1c-5,0-9.1-4.1-9.1-9.1v-94.1c0-4.4-3.6-8-8-8c-4.4,0-8,3.6-8,8v94.1
			C0,500.7,11.3,512,25.1,512h461.8c13.9,0,25.1-11.3,25.1-25.1V25.1C512,23.4,511.8,21.7,511.5,20.1z"/>
	</g>
</g>
<g>
	<g>
		<path class="st0" d="M67.9,25.7c-13.9,0-25.1,11.3-25.1,25.1S54,75.9,67.9,75.9S93,64.6,93,50.8C93,36.9,81.7,25.7,67.9,25.7z
			 M67.9,59.9c-5,0-9.1-4.1-9.1-9.1s4.1-9.1,9.1-9.1s9.1,4.1,9.1,9.1C77,55.8,72.9,59.9,67.9,59.9z"/>
	</g>
</g>
<g>
	<g>
		<path class="st0" d="M136.3,25.7c-13.9,0-25.1,11.3-25.1,25.1s11.3,25.1,25.1,25.1s25.1-11.3,25.1-25.1
			C161.4,36.9,150.1,25.7,136.3,25.7z M136.3,59.9c-5,0-9.1-4.1-9.1-9.1s4.1-9.1,9.1-9.1s9.1,4.1,9.1,9.1S141.3,59.9,136.3,59.9z"/>
	</g>
</g>
<g>
	<g>
		<path class="st0" d="M204.7,25.7c-13.9,0-25.1,11.3-25.1,25.1s11.3,25.1,25.1,25.1s25.1-11.3,25.1-25.1
			C229.8,36.9,218.5,25.7,204.7,25.7z M204.7,59.9c-5,0-9.1-4.1-9.1-9.1s4.1-9.1,9.1-9.1s9.1,4.1,9.1,9.1
			C213.8,55.8,209.7,59.9,204.7,59.9z"/>
	</g>
</g>
<g>
	<g>
		<path class="st0" d="M384.3,350.6h-248c-4.4,0-8,3.6-8,8v34.2c0,4.4,3.6,8,8,8h248c4.4,0,8-3.6,8-8v-34.2
			C392.3,354.2,388.7,350.6,384.3,350.6z M376.3,384.8H144.3v-18.2h231.9V384.8z"/>
	</g>
</g>
<g>
	<g>
		<path class="st0" d="M384.3,419h-248c-4.4,0-8,3.6-8,8v34.2c0,4.4,3.6,8,8,8h248c4.4,0,8-3.6,8-8V427
			C392.3,422.6,388.7,419,384.3,419z M376.3,453.2H144.3V435h231.9V453.2z"/>
	</g>
</g>
<g>
	<g>
		<path class="st0" d="M461.2,42.8h-17.1c-4.4,0-8,3.6-8,8c0,4.4,3.6,8,8,8h17.1c4.4,0,8-3.6,8-8C469.2,46.3,465.7,42.8,461.2,42.8z
			"/>
	</g>
</g>
<g>
	<g>
		<path class="st0" d="M418.5,42.8H290.2c-4.4,0-8,3.6-8,8c0,4.4,3.6,8,8,8h128.3c4.4,0,8-3.6,8-8C426.5,46.3,422.9,42.8,418.5,42.8
			z"/>
	</g>
</g>
<g>
	<g>
		<path class="st0" d="M307.3,196.7h-0.5v-26.2c0-23.3-18.9-42.2-42.2-42.2h-17.1c-23.3,0-42.2,18.9-42.2,42.2v8.6c0,4.4,3.6,8,8,8
			s8-3.6,8-8v-8.6c0-14.4,11.7-26.2,26.2-26.2h17.1c14.4,0,26.2,11.7,26.2,26.2v26.2h-86c-13.9,0-25.1,11.3-25.1,25.1v102.6
			c0,4.4,3.6,8,8,8h136.8c4.4,0,8-3.6,8-8V221.8C332.4,207.9,321.2,196.7,307.3,196.7z M316.4,316.4H195.6v-94.6
			c0-5,4.1-9.1,9.1-9.1h102.6c5,0,9.1,4.1,9.1,9.1L316.4,316.4L316.4,316.4z"/>
	</g>
</g>
<g>
	<g>
		<path class="st0" d="M256,230.9c-13.9,0-25.1,11.3-25.1,25.1c0,11,7.2,20.4,17.1,23.8v19c0,4.4,3.6,8,8,8c4.4,0,8-3.6,8-8v-19
			c9.9-3.4,17.1-12.8,17.1-23.8C281.1,242.1,269.9,230.9,256,230.9z M256,265.1c-5,0-9.1-4.1-9.1-9.1s4.1-9.1,9.1-9.1
			c5,0,9.1,4.1,9.1,9.1C265.1,261,261,265.1,256,265.1z"/>
	</g>
</g>
</svg>
