<?xml version="1.0" encoding="utf-8"?>
<!-- Generator: Adobe Illustrator 21.0.2, SVG Export Plug-In . SVG Version: 6.00 Build 0)  -->
<svg width="40" height="52" version="1.1" id="Layer_1" xmlns="http://www.w3.org/2000/svg" xmlns:xlink="http://www.w3.org/1999/xlink" x="0px" y="0px"
	 viewBox="0 0 29 40" style="enable-background:new 0 0 29 40;" xml:space="preserve">
<style type="text/css">
	.st0{fill:#D73F6E;}
	.st1{fill:#FFFFFF;}
</style>
<g>
	<g>
		<g>
			<g>
				<g>
					<path class="st0" d="M14.5,0C6.5,0,0,6.5,0,14.5C0,24.4,13,39,13.5,39.6c0.5,0.6,1.4,0.6,1.9,0C16,38.9,29,24.4,29,14.5
						C29,6.5,22.5,0,14.5,0z M14.5,21.8c-4,0-7.3-3.3-7.3-7.3s3.3-7.3,7.3-7.3s7.3,3.3,7.3,7.3S18.5,21.8,14.5,21.8z"/>
				</g>
			</g>
		</g>
	</g>
	<g>
		<circle class="st1" cx="14.5" cy="14.4" r="13.2"/>
		<path class="st0" d="M14.5,27.6c-7.3,0-13.3-5.9-13.3-13.3S7.2,1.1,14.5,1.1s13.3,5.9,13.3,13.3S21.8,27.6,14.5,27.6z M14.5,1.2
			C7.2,1.2,1.3,7.1,1.3,14.4s5.9,13.2,13.2,13.2s13.2-5.9,13.2-13.2S21.8,1.2,14.5,1.2z"/>
	</g>
	<g>
		<path class="st0" d="M14.5,28.6c-7.8,0-14.2-6.4-14.2-14.2c0-7.8,6.4-14.2,14.2-14.2s14.2,6.4,14.2,14.2S22.3,28.6,14.5,28.6z
			 M14.5,2.2C7.8,2.2,2.3,7.6,2.3,14.4c0,6.7,5.5,12.2,12.2,12.2s12.2-5.5,12.2-12.2C26.7,7.6,21.2,2.2,14.5,2.2z"/>
		<path class="st0" d="M14.5,28.6c-7.9,0-14.3-6.4-14.3-14.3S6.6,0.1,14.5,0.1s14.3,6.4,14.3,14.3S22.4,28.6,14.5,28.6z M14.5,0.2
			C6.7,0.2,0.3,6.5,0.3,14.4s6.4,14.2,14.2,14.2s14.2-6.4,14.2-14.2S22.3,0.2,14.5,0.2z M14.5,26.6c-6.7,0-12.2-5.5-12.2-12.2
			c0-6.7,5.5-12.2,12.2-12.2s12.2,5.5,12.2,12.2S21.2,26.6,14.5,26.6z M14.5,2.2C7.8,2.2,2.3,7.7,2.3,14.4s5.5,12.2,12.2,12.2
			s12.2-5.5,12.2-12.2S21.2,2.2,14.5,2.2z"/>
	</g>
	<g>
		<g>
			<polygon class="st0" points="5.8,5.5 9.6,15.6 11.5,15.6 14.5,7.4 17.5,15.6 19.4,15.6 23.2,5.5 21.4,3.9 18.5,12.3 15.4,4 
				13.5,4 10.5,12.3 7.5,3.9 			"/>
		</g>
		<g>
			<path class="st0" d="M19.5,15.8h-2.2L14.5,8l-2.9,7.9H9.4L5.6,5.4l2-1.9l3,8.2l2.8-7.9h2.2l2.9,7.9l2.9-8.2l2,1.9L19.5,15.8z
				 M17.6,15.4h1.6l3.6-9.9l-1.4-1.3l-3.1,8.7l-3.2-8.7h-1.6l-3.1,8.7L7.4,4.2L6,5.5l3.7,9.9h1.7l3.1-8.6L17.6,15.4z"/>
		</g>
	</g>
	<g>
		<g>
			<polygon class="st0" points="10.2,17.3 18.8,17.3 15.4,26.4 13.6,26.4 			"/>
		</g>
		<g>
			<path class="st0" d="M15.6,26.6h-2.1l-3.5-9.5h9.2L15.6,26.6z M13.7,26.2h1.6l3.3-8.8h-8.1L13.7,26.2z"/>
		</g>
	</g>
</g>
</svg>
