<?xml version="1.0" encoding="utf-8"?>
<!-- Generator: Adobe Illustrator 21.0.2, SVG Export Plug-In . SVG Version: 6.00 Build 0)  -->
<svg version="1.1" id="Capa_1" xmlns="http://www.w3.org/2000/svg" xmlns:xlink="http://www.w3.org/1999/xlink" x="0px" y="0px"
	 viewBox="0 0 462.7 286.4" style="enable-background:new 0 0 462.7 286.4;" xml:space="preserve">
<style type="text/css">
	.st0{fill:#4D5CB9;}
</style>
<path class="st0" d="M459,64.3L232.7,0.2c-0.9-0.3-1.8-0.3-2.7,0L3.6,64.3c-2.1,0.6-3.5,2.4-3.6,4.6s1.2,4.1,3.2,4.9l109.3,42.1
	l-3.8,30.3c-0.9,7.3,2.7,14.4,9.2,18.2c20.8,12.9,86.5,44.5,106.2,49.2c2.8,0.8,5.7,1.2,8.6,1.2c2.9,0,5.8-0.4,8.6-1.2
	c19.7-4.7,85.4-36.3,106.2-49.2c6.5-3.8,10.2-10.9,9.2-18.2l-4-31.3l24.3-9.4v95.1c-7.9,2.2-13.7,9.4-13.7,18
	c0,6.1,2.9,11.5,7.4,14.9c-1.1,5-2.4,10-3.7,15.1c-0.3,0.6-0.5,1.2-0.5,1.8c-2.6,9.5-5.6,18.9-8.9,28.2c-0.5,1.4-0.3,3,0.5,4.3
	s2.2,2.2,3.7,2.3c6.7,0.7,13.5,1.1,20.2,1.1c6.8,0,13.5-0.4,20.2-1.1c1.5-0.2,2.9-1,3.7-2.3s1-2.9,0.5-4.3
	c-5.3-14.7-9.7-29.9-13.1-45.1c4.5-3.4,7.4-8.8,7.4-14.9c0-8.6-5.8-15.8-13.7-18v-98.9l72.4-27.9c2-0.8,3.3-2.7,3.2-4.9
	C462.6,66.7,461.1,64.9,459,64.3z M369.2,275.9c2.3-6.6,4.3-13.4,6.2-20.1h13.2c1.9,6.8,4,13.5,6.2,20.1
	C386.3,276.5,377.7,276.5,369.2,275.9z M385.9,245.8h-7.9c0.7-2.8,1.4-5.7,2.1-8.6c0.6,0.1,1.2,0.1,1.9,0.1s1.2,0,1.9-0.1
	C384.5,240.1,385.2,242.9,385.9,245.8z M390.7,218.6c0,4.8-3.9,8.7-8.7,8.7s-8.7-3.9-8.7-8.7s3.9-8.7,8.7-8.7
	S390.7,213.8,390.7,218.6z M343.6,122.5l-43.1,16.6c-2.6,1-3.9,3.9-2.9,6.5c0.8,2,2.7,3.2,4.7,3.2c0.6,0,1.2-0.1,1.8-0.3l40.8-15.7
	l0.7,5.5l-20.9,8c-2.6,1-3.9,3.9-2.9,6.5c0.8,2,2.7,3.2,4.7,3.2c0.6,0,1.2-0.1,1.8-0.3l18.5-7.1c0,3-1.6,5.8-4.4,7.4
	c-0.1,0-0.1,0.1-0.2,0.1c-21.7,13.5-86.1,44-103.4,48.1c-0.1,0-0.1,0-0.2,0.1c-3.9,1.1-8,1.1-11.9,0c-0.1,0-0.1,0-0.2-0.1
	c-17.3-4.1-81.7-34.6-103.4-48.1c-0.1,0-0.1-0.1-0.2-0.1c-2.4-1.4-4-3.7-4.3-6.3l15.7,6.1c0.6,0.2,1.2,0.3,1.8,0.3
	c2,0,3.9-1.2,4.7-3.2c1-2.6-0.3-5.5-2.9-6.5l-18.3-7.1l0.7-5.5l38.3,14.8c0.6,0.2,1.2,0.3,1.8,0.3c2,0,3.9-1.2,4.7-3.2
	c1-2.6-0.3-5.5-2.9-6.5l-40.6-15.6l0.5-3.9L229.5,161c0.6,0.2,1.2,0.3,1.8,0.3s1.2-0.1,1.8-0.3l110-42.4L343.6,122.5z M378.2,94.4
	L232.3,64.2c-2.7-0.6-5.4,1.2-5.9,3.9c-0.6,2.7,1.2,5.4,3.9,5.9L361,101l-129.7,50L20.8,69.8l210.5-59.6l210.5,59.6L378.2,94.4z"/>
</svg>
