<?xml version="1.0" encoding="utf-8"?>
<!-- Generator: Adobe Illustrator 21.0.2, SVG Export Plug-In . SVG Version: 6.00 Build 0)  -->
<svg version="1.1" id="Capa_1" xmlns="http://www.w3.org/2000/svg" xmlns:xlink="http://www.w3.org/1999/xlink" x="0px" y="0px"
	 viewBox="0 0 338.1 414.3" style="enable-background:new 0 0 338.1 414.3;" xml:space="preserve">
<style type="text/css">
	.st0{fill:#4D5CB9;}
</style>
<g>
	<path class="st0" d="M333.1,49.5h-19.8V29.8c0-2.8-2.2-5-5-5h-19.8V5c0-2.8-2.2-5-5-5H5C2.2,0,0,2.2,0,5v354.8c0,2.8,2.2,5,5,5
		h19.8v19.8c0,2.8,2.2,5,5,5h19.8v19.8c0,2.8,2.2,5,5,5h278.6c2.8,0,5-2.2,5-5V54.5C338.1,51.8,335.9,49.5,333.1,49.5z M10,10h268.6
		v344.8H10V10z M34.8,364.8h248.8c2.8,0,5-2.2,5-5v-325h14.8v344.7H34.8V364.8z M328.1,404.3H59.5v-14.8h248.8c2.8,0,5-2.2,5-5v-325
		h14.8L328.1,404.3L328.1,404.3z"/>
	<path class="st0" d="M99.1,117.3h90.4c2.8,0,5-2.2,5-5s-2.2-5-5-5H99.1c-2.8,0-5,2.2-5,5S96.3,117.3,99.1,117.3z"/>
	<path class="st0" d="M99.1,141.3h90.4c2.8,0,5-2.2,5-5s-2.2-5-5-5H99.1c-2.8,0-5,2.2-5,5S96.3,141.3,99.1,141.3z"/>
	<path class="st0" d="M99.1,165.2h90.4c2.8,0,5-2.2,5-5s-2.2-5-5-5H99.1c-2.8,0-5,2.2-5,5S96.3,165.2,99.1,165.2z"/>
	<path class="st0" d="M99.1,189.1h90.4c2.8,0,5-2.2,5-5s-2.2-5-5-5H99.1c-2.8,0-5,2.2-5,5S96.3,189.1,99.1,189.1z"/>
	<path class="st0" d="M58.8,229.4h171c2.8,0,5-2.2,5-5v-15.7c0-2.8-2.2-5-5-5s-5,2.2-5,5v10.7h-161V77h161v115.7c0,2.8,2.2,5,5,5
		s5-2.2,5-5V72c0-2.8-2.2-5-5-5h-171c-2.8,0-5,2.2-5,5v152.4C53.8,227.2,56.1,229.4,58.8,229.4z"/>
	<path class="st0" d="M76.8,125.3c-2.8,0-5,2.2-5,5v76.2c0,2.8,2.2,5,5,5h135c2.8,0,5-2.2,5-5V90c0-2.8-2.2-5-5-5h-135
		c-2.8,0-5,2.2-5,5v22.7c0,2.8,2.2,5,5,5c2.8,0,5-2.2,5-5V95h125v106.4h-125v-71.2C81.8,127.5,79.6,125.3,76.8,125.3z"/>
	<path class="st0" d="M170.2,349.8c2.8,0,5-2.2,5-5s-2.2-5-5-5H19.6c-2.8,0-5,2.2-5,5s2.2,5,5,5H170.2z"/>
	<path class="st0" d="M119.7,25.3h150.6c2.8,0,5-2.2,5-5s-2.2-5-5-5H119.7c-2.8,0-5,2.2-5,5S116.9,25.3,119.7,25.3z"/>
	<path class="st0" d="M270.2,31.3h-34.9c-2.8,0-5,2.2-5,5s2.2,5,5,5h34.9c2.8,0,5-2.2,5-5S273,31.3,270.2,31.3z"/>
	<path class="st0" d="M214.7,32.8c-0.9,0.9-1.5,2.2-1.5,3.5c0,1.3,0.5,2.6,1.5,3.5c0.9,0.9,2.2,1.5,3.5,1.5c1.3,0,2.6-0.5,3.5-1.5
		c0.9-0.9,1.5-2.2,1.5-3.5c0-1.3-0.5-2.6-1.5-3.5c-0.9-0.9-2.2-1.5-3.5-1.5C216.9,31.3,215.6,31.8,214.7,32.8z"/>
	<path class="st0" d="M19.6,336.2h35.2c2.8,0,5-2.2,5-5s-2.2-5-5-5H19.6c-2.8,0-5,2.2-5,5S16.8,336.2,19.6,336.2z"/>
</g>
</svg>
