<?xml version="1.0" encoding="utf-8"?>
<!-- Generator: Adobe Illustrator 21.1.0, SVG Export Plug-In . SVG Version: 6.00 Build 0)  -->
<svg version="1.1" id="Слой_1" xmlns="http://www.w3.org/2000/svg" xmlns:xlink="http://www.w3.org/1999/xlink" x="0px" y="0px"
	 viewBox="0 0 77.7 99.3" style="enable-background:new 0 0 77.7 99.3;" xml:space="preserve">
<style type="text/css">
	.st0{fill:#4D5CB9;}
</style>
<g>
	<path class="st0" d="M77.7,78.7v20.6H2.9L2.8,82.3l35.7-36.7c2.8-2.9,5.1-5.8,6.9-8.7c1.8-2.9,2.7-5.4,2.7-7.4c0-2.7-1-4.8-2.9-6.2
		c-2-1.4-4.7-2.2-8.3-2.2c-3.9,0-8.3,1.1-13.1,3.3c-4.8,2.2-9.4,5.3-13.9,9.2L0,14.7C13.5,4.9,27.1,0,40.7,0
		c6.5,0,12.4,1.1,17.6,3.2c5.2,2.1,9.2,5.2,12.2,9.1s4.4,8.4,4.4,13.4s-1.7,10.2-5,15.6c-3.3,5.4-8,11.1-14.1,17.1l-20,20.2H77.7z"
		/>
</g>
</svg>
