<?xml version="1.0" encoding="utf-8"?>
<!-- Generator: Adobe Illustrator 21.1.0, SVG Export Plug-In . SVG Version: 6.00 Build 0)  -->
<svg version="1.1" id="Слой_1" xmlns="http://www.w3.org/2000/svg" xmlns:xlink="http://www.w3.org/1999/xlink" x="0px" y="0px"
	 viewBox="0 0 78.5 99.3" style="enable-background:new 0 0 78.5 99.3;" xml:space="preserve">
<style type="text/css">
	.st0{fill:#4D5CB9;}
</style>
<g>
	<path class="st0" d="M71.3,49.1c4.8,4.7,7.2,10.8,7.2,18.1c0,6.3-1.6,11.8-4.9,16.7c-3.3,4.9-7.9,8.6-13.9,11.3
		c-6,2.7-13,4.1-21,4.1c-7.2,0-14.3-1.1-21.2-3.3c-7-2.2-12.8-5.1-17.6-8.8l9.5-18.1c4.1,3.5,8.5,6.1,13.2,7.8
		c4.7,1.8,9.3,2.7,14,2.7c5.4,0,9.6-1,12.5-3.1c2.9-2.1,4.3-5.1,4.3-9s-1.4-6.9-4.3-9c-2.9-2.1-7.1-3.1-12.6-3.1H20v-14l22.7-21.8
		H5.2V0h68.6v14.8L47,39.3l5.2,1C60.2,41.4,66.5,44.4,71.3,49.1z"/>
</g>
</svg>
