<?xml version="1.0" encoding="utf-8"?>
<!-- Generator: Adobe Illustrator 21.0.2, SVG Export Plug-In . SVG Version: 6.00 Build 0)  -->
<svg version="1.1" id="Layer_1" xmlns="http://www.w3.org/2000/svg" xmlns:xlink="http://www.w3.org/1999/xlink" x="0px" y="0px"
	 viewBox="0 0 449.5 511.9" style="enable-background:new 0 0 449.5 511.9;" xml:space="preserve">
<style type="text/css">
	.st0{fill:#4D5CB9;}
</style>
<g>
	<g>
		<path class="st0" d="M445,169.7c-9.7-35.5-34.8-60.9-72.9-73.9C367.5,69.4,355.6,48,336.4,32C310.9,10.8,273.2,0,224.1,0H112.6
			c-11.2-0.5-33.3,6.2-39.2,34.9l-73,356.9c0,0.2-0.1,0.4-0.1,0.6C0.1,394-1.6,408,6.9,417.9c3.4,3.9,9.7,8.5,20.3,8.5h49.6
			c0.4,0,0.7,0,1.1,0c2.4,0,5.4-0.3,8.6-1.2l-10.6,52.1c0,0.2-0.1,0.4-0.1,0.6c-0.2,1.6-1.9,15.6,6.6,25.5c3.4,3.9,9.7,8.5,20.3,8.5
			h49.6c0.4,0,0.8,0,1.3,0c11.5,0,32-7.3,36.6-35.7l16.5-81.5c0.3-1.2,3.8-15.3,17.3-15.3c0.9,0,1.9,0,3.2,0
			c16.6,0.2,60.5,0.6,105.7-14.6c26-8.7,48-21.3,65.6-37.4c21.5-19.7,36.5-44.7,44.5-74.3C447.7,236.3,454,202.9,445,169.7z
			 M347.9,162.4c-19.7,72.9-85.9,111.3-191.6,111.3c-1.5,0-2.9,0-4.4,0c-1.3,0-2.5,0-3.4,0c-3.8,0-7.3,0.5-10.4,1.4l30.8-150.6
			c3.6-17.5,15.5-18.6,18.4-18.6h0.1c0.2,0,0.2,0,0.5,0h111.7c20.1,0,38.2,1.9,53.8,5.8C354.8,132.9,350.7,152.2,347.9,162.4z
			 M77.7,406.1c-0.3,0-0.3,0-0.6,0H27.3c-3.6,0-4.6-1.1-4.9-1.5c-1.7-2-2.1-6.5-1.9-9L93.4,39c3.6-17.5,15.5-18.6,18.4-18.6h0.1
			c0.2,0,0.2,0,0.5,0h111.7c71.3,0,113.6,23.4,125.8,69.6c-15.2-3-32-4.5-50.4-4.5H188.1c-11.2-0.5-33.3,6.2-39.2,34.9L93,393.9
			C88.8,405.6,79.8,406.2,77.7,406.1z M423.4,247.9c-19.7,72.9-85.9,111.3-191.6,111.3c-1.5,0-2.9,0-4.4,0c-1.3,0-2.5,0-3.4,0
			c-24,0-34.9,20.5-37.3,31.3c0,0.1,0,0.1,0,0.2l-16.5,81.8c0,0.1-0.1,0.3-0.1,0.4c-2.8,17.9-14.2,18.7-16.8,18.7
			c-0.3,0-0.3,0-0.6,0h-49.9c-3.6,0-4.6-1.1-4.9-1.5c-1.7-2-2.1-6.5-1.9-9l35.2-171.6c0.5-1.9,4.2-15.3,17.3-15.3c0.9,0,1.9,0,3.2,0
			c16.6,0.2,60.5,0.6,105.7-14.6c26-8.7,48-21.3,65.6-37.4c21.5-19.7,36.5-44.7,44.5-74.3c2.8-10.2,6.7-28.5,6.5-49.3
			C442.1,147,431.6,217.5,423.4,247.9z"/>
	</g>
</g>
<g>
	<g>
		<path class="st0" d="M80.6,210.3c-5.5-1.1-10.9,2.4-12,8l-1,4.8c-1.1,5.5,2.4,10.9,8,12c0.7,0.1,1.4,0.2,2.1,0.2
			c4.7,0,9-3.3,10-8.2l1-4.8C89.7,216.8,86.1,211.4,80.6,210.3z"/>
	</g>
</g>
<g>
	<g>
		<path class="st0" d="M72.9,248.3c-5.5-1.1-10.9,2.4-12,8L35,382.6c-1.1,5.5,2.4,10.9,8,12c0.7,0.1,1.4,0.2,2.1,0.2
			c4.7,0,9-3.3,10-8.2l25.7-126.3C81.9,254.8,78.4,249.4,72.9,248.3z"/>
	</g>
</g>
</svg>
